# xmcd CD database file
#
# Track frame offsets:
#	150
#	17314
#	35073
#	54782
#	70674
#	87442
#	98975
#	117833
#	143690
#	160622
#	181455
#	202065
#	218858
#	235216
#	249464
#	263117
#
# Disc length: 3709 seconds
#
# Revision: 6
# Processed by: cddbd v1.5.2PL0 Copyright (c) Steve Scherf et al.
# Submitted via: CDex 1.51
#
DISCID=d60e7b10
DTITLE=STATUS QUO - The best of Status Quo 1972-1986
DYEAR=1986
DGENRE=Rock
TTITLE0=Caroline
TTITLE1=Night ride
TTITLE2=Don´t waste my time
TTITLE3=Like a goodgGirl
TTITLE4=Again and again
TTITLE5=Fine fine fine
TTITLE6=Accident prone
TTITLE7=Roll over lay down (LIVE)
TTITLE8=Down down
TTITLE9=She don´t fool me
TTITLE10=Keep me guessing
TTITLE11=Oh! What a night
TTITLE12=Just take me
TTITLE13=Let´s ride
TTITLE14=Late last night
TTITLE15=A mess of blues
EXTD=YEAR: 1986
EXTT0=
EXTT1=
EXTT2=
EXTT3=
EXTT4=
EXTT5=
EXTT6=
EXTT7=
EXTT8=
EXTT9=
EXTT10=
EXTT11=
EXTT12=
EXTT13=
EXTT14=
EXTT15=
PLAYORDER=
